<?xml version="1.0" ?><svg style="enable-background:new 0 0 48 48;" version="1.1" viewBox="0 0 48 48" xml:space="preserve" xmlns="http://www.w3.org/2000/svg" xmlns:xlink="http://www.w3.org/1999/xlink"><g id="Icons"><g id="Icons_10_"><g><path d="M23.85195,19.84437c-1.7454-4.8355,6.1102-9.4326,9.347-5.0194c0,0,1.2547-0.0451,3.5444-1.278     c0,0-0.546,1.7435-2.3073,2.8973c0,0,1.3386-0.0087,2.959-0.7308c0,0-1.0215,1.6556-2.6068,2.7653     c0,0-0.0352,2.4835-0.4051,4.0335c-0.3698,1.55-1.6028,5.8653-5.3016,8.8948c-3.6989,3.0295-8.2079,3.6989-10.7619,3.5227     c-2.554-0.1761-5.6892-1.1449-7.7147-2.3954c0,0,4.6323,0.4932,8.0494-2.325c0,0-3.4523,0.1585-5.0903-3.8221     c0,0,1.1801,0.2113,2.4482-0.141c0,0-4.3505-0.7926-4.4033-5.4778c0,0,1.4267,0.7046,2.4835,0.6341     c0,0-4.1568-3.1704-1.6205-7.2744C12.47195,14.12817,16.63195,19.64227,23.85195,19.84437z" style="fill:#4AA0EC;"/></g></g></g></svg>